HIERARCHY
ROOT Hips
{
	OFFSET 0.000000 0.000000 0.000000
	CHANNELS 6 Xposition Yposition Zposition Zrotation Yrotation Xrotation 
	JOINT LHipJoint
	{
		OFFSET 0.000000 0.000000 0.000000
		CHANNELS 3 Zrotation Yrotation Xrotation
		JOINT LeftUpLeg
		{
			OFFSET 1.363060 -1.794630 0.839290
			CHANNELS 3 Zrotation Yrotation Xrotation
			JOINT LeftLeg
			{
				OFFSET 2.448110 -6.726130 0.000000
				CHANNELS 3 Zrotation Yrotation Xrotation
				JOINT LeftFoot
				{
					OFFSET 2.562200 -7.039590 0.000000
					CHANNELS 3 Zrotation Yrotation Xrotation
					JOINT LeftToeBase
					{
						OFFSET 0.157640 -0.433110 2.322550
						CHANNELS 3 Zrotation Yrotation Xrotation
						End Site
						{
							OFFSET 0.000000 0.000000 0.000000
						}
					}
				}
			}
		}
	}
	JOINT RHipJoint
	{
		OFFSET 0.000000 0.000000 0.000000
		CHANNELS 3 Zrotation Yrotation Xrotation
		JOINT RightUpLeg
		{
			OFFSET -1.305520 -1.794630 0.839290
			CHANNELS 3 Zrotation Yrotation Xrotation
			JOINT RightLeg
			{
				OFFSET -2.542530 -6.985550 0.000000
				CHANNELS 3 Zrotation Yrotation Xrotation
				JOINT RightFoot
				{
					OFFSET -2.568260 -7.056230 0.000000
					CHANNELS 3 Zrotation Yrotation Xrotation
					JOINT RightToeBase
					{
						OFFSET -0.164730 -0.452590 2.363150
						CHANNELS 3 Zrotation Yrotation Xrotation
						End Site
						{
							OFFSET 0.000000 0.000000 0.000000
						}
					}
				}
			}
		}
	}
	JOINT LowerBack
	{
		OFFSET 0.000000 0.000000 0.000000
		CHANNELS 3 Zrotation Yrotation Xrotation
		JOINT Spine
		{
			OFFSET 0.028270 2.035590 -0.193380
			CHANNELS 3 Zrotation Yrotation Xrotation
			JOINT Spine1
			{
				OFFSET 0.056720 2.048850 -0.042750
				CHANNELS 3 Zrotation Yrotation Xrotation
				JOINT Neck
				{
					OFFSET 0.000000 0.000000 0.000000
					CHANNELS 3 Zrotation Yrotation Xrotation
					JOINT Neck1
					{
						OFFSET -0.054170 1.746240 0.172020
						CHANNELS 3 Zrotation Yrotation Xrotation
						JOINT Head
						{
							OFFSET 0.104070 1.761360 -0.123970
							CHANNELS 3 Zrotation Yrotation Xrotation
							End Site
							{
								OFFSET 0.000000 0.000000 0.000000
							}
						}
					}
				}
				JOINT LeftShoulder
				{
					OFFSET 0.000000 0.000000 0.000000
					CHANNELS 3 Zrotation Yrotation Xrotation
					JOINT LeftArm
					{
						OFFSET 3.362410 1.200890 -0.311210
						CHANNELS 3 Zrotation Yrotation Xrotation
						JOINT LeftForeArm
						{
							OFFSET 4.983000 -0.000000 -0.000000
							CHANNELS 3 Zrotation Yrotation Xrotation
							JOINT LeftHand
							{
								OFFSET 3.483560 -0.000000 -0.000000
								CHANNELS 3 Zrotation Yrotation Xrotation
								JOINT LeftFingerBase
								{
									OFFSET 0.000000 0.000000 0.000000
									CHANNELS 3 Zrotation Yrotation Xrotation
									JOINT LeftHandIndex1
									{
										OFFSET 0.715260 -0.000000 -0.000000
										CHANNELS 3 Zrotation Yrotation Xrotation
										End Site
										{
											OFFSET 0.000000 0.000000 0.000000
										}
									}
								}
								JOINT LThumb
								{
									OFFSET 0.000000 0.000000 0.000000
									CHANNELS 3 Zrotation Yrotation Xrotation
									End Site
									{
										OFFSET 0.000000 0.000000 0.000000
									}
								}
							}
						}
					}
				}
				JOINT RightShoulder
				{
					OFFSET 0.000000 0.000000 0.000000
					CHANNELS 3 Zrotation Yrotation Xrotation
					JOINT RightArm
					{
						OFFSET -3.136600 1.374050 -0.404650
						CHANNELS 3 Zrotation Yrotation Xrotation
						JOINT RightForeArm
						{
							OFFSET -5.241900 -0.000000 -0.000000
							CHANNELS 3 Zrotation Yrotation Xrotation
							JOINT RightHand
							{
								OFFSET -3.444170 -0.000000 -0.000000
								CHANNELS 3 Zrotation Yrotation Xrotation
								JOINT RightFingerBase
								{
									OFFSET 0.000000 0.000000 0.000000
									CHANNELS 3 Zrotation Yrotation Xrotation
									JOINT RightHandIndex1
									{
										OFFSET -0.622530 -0.000000 -0.000000
										CHANNELS 3 Zrotation Yrotation Xrotation
										End Site
										{
											OFFSET 0.000000 0.000000 0.000000
										}
									}
								}
								JOINT RThumb
								{
									OFFSET 0.000000 0.000000 0.000000
									CHANNELS 3 Zrotation Yrotation Xrotation
									End Site
									{
										OFFSET 0.000000 0.000000 0.000000
									}
								}
							}
						}
					}
				}
			}
		}
	}
}
MOTION
Frames: 5
Frame Time: 0.008333
10.320070 17.858067 10.853789 2.545686 4.654732 5.809606 -1.821750 1.553470 4.232143 -17.794236 1.334355 5.834373 0.805300 9.239409 28.535321 -0.194872 10.971450 31.138704 0.005849 0.220725 0.606773 -0.777768 2.721727 -4.517477 12.506033 5.749051 -34.188220 1.441369 -12.817821 29.067455 -2.159917 -0.602574 22.185338 -0.091990 -1.955700 5.383274 -0.077385 -1.468227 2.389780 1.729174 -1.678460 -3.939700 2.050548 -1.540488 -1.775305 -5.467207 0.153089 -10.780416 2.709940 0.679499 7.853324 0.035495 0.239933 4.461374 3.547521 -10.501682 0.974803 -78.200306 -23.246137 27.975033 39.090013 -39.795399 -19.039172 -0.385396 0.439238 -33.366982 28.910465 -15.327531 -8.672728 -7.125000 0.000000 0.000000 0.843505 11.855776 -0.652222 -3.597135 9.068195 1.447439 97.450535 -25.919200 -36.501216 -2.914366 9.383807 -1.747442 2.080160 0.459287 30.244708 -14.734483 -38.796698 10.627151 7.125000 0.000000 0.000000 28.041414 -69.196989 -16.721586
10.322628 17.865872 10.985595 2.518913 4.425844 5.715258 -1.782800 1.462263 4.084065 -17.899665 1.329381 5.194955 1.276016 9.831969 30.188438 -0.311879 11.827097 31.429835 0.000190 0.025464 0.070023 -0.775296 2.704215 -4.434483 12.705574 5.726218 -34.035516 1.345619 -12.923757 29.533007 -2.238275 -0.184717 22.077904 -0.108721 -2.112746 5.817857 -0.002448 -1.394961 2.535700 1.733276 -1.584270 -3.934215 2.036154 -1.477688 -1.835983 -5.392589 0.175896 -10.743121 2.632224 0.700500 7.808117 -0.034473 0.247811 4.433860 3.555101 -10.488758 0.957439 -78.454675 -22.758929 28.044690 39.001414 -39.809002 -18.976403 -0.395746 0.428780 -33.428769 28.952830 -15.194822 -8.620585 -7.125000 0.000000 0.000000 0.895514 12.000770 -0.689744 -3.575453 9.086855 1.445165 97.285365 -25.595340 -36.411500 -2.930717 9.368085 -1.757822 2.089459 0.454089 30.411395 -14.676006 -38.891910 10.613401 7.125000 0.000000 0.000000 28.252233 -69.263772 -16.894118
10.324421 17.873103 11.116174 2.607346 4.201604 5.615655 -1.735838 1.367285 3.925205 -18.142270 1.293521 4.612725 1.767197 10.413517 31.810053 -0.530692 12.954090 31.410319 0.000551 0.129474 0.355805 -0.769604 2.685590 -4.344598 12.786928 5.677767 -33.831543 1.261049 -12.995011 29.916392 -2.326349 0.243052 21.945448 -0.137901 -2.383243 6.566562 -0.057317 -1.307118 2.731124 1.721643 -1.471225 -3.933522 2.020421 -1.402112 -1.940907 -5.342871 0.164891 -10.696586 2.591352 0.675076 7.753795 -0.077189 0.234019 4.405400 3.556958 -10.482816 0.936837 -78.728050 -22.236414 28.167788 38.909367 -39.819990 -18.903328 -0.404681 0.414817 -33.468526 28.925122 -14.985050 -8.501342 -7.125000 0.000000 0.000000 0.910490 12.248417 -0.696641 -3.570091 9.115502 1.441345 97.212419 -25.231266 -36.469595 -2.960284 9.354018 -1.763320 2.089789 0.438758 30.625105 -14.501867 -38.800248 10.477535 7.125000 0.000000 0.000000 28.297522 -69.128987 -16.838897
10.323336 17.884365 11.243230 2.537233 3.972143 5.513188 -1.693096 1.289040 3.768708 -18.174151 1.308310 3.942867 2.318368 10.993193 33.451533 -0.861085 14.476572 31.206102 0.015974 0.561159 1.543063 -0.742196 2.660586 -4.243160 13.029852 5.665618 -33.604244 1.199020 -13.041220 30.236801 -2.397669 0.645201 21.701965 -0.167232 -2.626536 7.241218 0.040073 -1.210452 2.971624 1.720717 -1.340567 -3.940581 1.988064 -1.319265 -2.095444 -5.317754 0.155483 -10.672935 2.584913 0.656543 7.726826 -0.087700 0.223841 4.411073 3.561019 -10.485476 0.910500 -79.026926 -21.678243 28.301430 38.816511 -39.827744 -18.824630 -0.414505 0.397484 -33.487915 28.870952 -14.693626 -8.329831 -7.125000 0.000000 0.000000 0.918056 12.594574 -0.695855 -3.566034 9.152727 1.432859 97.139105 -24.811528 -36.740200 -2.990037 9.309743 -1.766966 2.089057 0.414196 31.083814 -14.237457 -38.685992 10.276115 7.125000 0.000000 0.000000 28.414479 -68.947025 -16.798075
10.320212 17.898482 11.367791 2.354817 3.738984 5.408692 -1.653343 1.222647 3.613884 -18.056769 1.358976 3.210940 2.912033 11.571544 35.107083 -1.270512 16.279191 30.871054 0.042066 1.224947 3.368867 -0.699404 2.631064 -4.133537 13.387222 5.679181 -33.360422 1.152958 -13.069688 30.512601 -2.457120 1.029202 21.379838 -0.196669 -2.850561 7.863423 0.245314 -1.107536 3.244054 1.727376 -1.197434 -3.953130 1.943930 -1.231268 -2.285124 -5.310064 0.147205 -10.665495 2.602864 0.642891 7.719232 -0.075400 0.216225 4.440922 3.566640 -10.494230 0.880101 -79.343864 -21.094816 28.442543 38.723083 -39.833208 -18.741947 -0.424959 0.377765 -33.492877 28.798037 -14.344364 -8.121297 -7.125000 0.000000 0.000000 0.920372 13.010510 -0.689628 -3.562901 9.196028 1.421069 97.065530 -24.352362 -37.161334 -3.019920 9.244071 -1.769299 2.087571 0.383093 31.716062 -13.909106 -38.555731 10.028263 7.125000 0.000000 0.000000 28.582202 -68.731646 -16.767454
